<svg xmlns="http://www.w3.org/2000/svg" width="512" height="512" viewBox="0 0 512 512">
  <defs>
    <radialGradient id="g" cx="50%" cy="40%" r="70%">
      <stop offset="0%" stop-color="#5eead4"/>
      <stop offset="100%" stop-color="#0ea5e9"/>
    </radialGradient>
  </defs>
  <rect width="512" height="512" rx="112" fill="url(#g)"/>
  <g fill="#0b1020" opacity="0.1">
    <circle cx="420" cy="92" r="16"/>
    <circle cx="88" cy="424" r="12"/>
    <circle cx="300" cy="360" r="10"/>
  </g>
  <g transform="translate(256 256)">
    <circle r="148" fill="#ffffff" opacity="0.12"/>
    <circle r="112" fill="#ffffff" opacity="0.16"/>
    <path d="M-84 -16c10 -64 92 -92 144 -48c40 34 42 100 -4 132c-38 26 -92 18 -120 -18l-20 8c-10 4 -18 -6 -14 -16l12 -30c2 -4 4 -8 6 -12z" fill="#0f172a" opacity="0.2"/>
    <path d="M-80 -20c8 -52 76 -76 120 -40c34 28 36 82 -4 108c-32 22 -78 16 -102 -16l-18 8c-8 4 -16 -4 -12 -12l10 -28z" fill="#06283D"/>
    <circle cx="-10" cy="-18" r="8" fill="#ffffff"/>
    <circle cx="20" cy="-12" r="8" fill="#ffffff"/>
    <circle cx="-8" cy="-18" r="3" fill="#0f172a"/>
    <circle cx="22" cy="-12" r="3" fill="#0f172a"/>
    <path d="M-18 10c22 20 46 20 70 0" stroke="#0f172a" stroke-width="6" stroke-linecap="round" fill="none"/>
  </g>
  <text x="50%" y="468" dominant-baseline="middle" text-anchor="middle" font-family="ui-sans-serif, system-ui, -apple-system, Segoe UI, Roboto" font-size="44" fill="#ffffff" opacity="0.9">STEER</text>
</svg>


